<svg width="512" height="585" viewBox="0 0 512 585" fill="none" xmlns="http://www.w3.org/2000/svg">
<path d="M27.4 361C12.3 361 0 373.3 0 388.4C0 458.9 44.4 519.1 106.6 542.6L108.4 557C110.4 573 124.1 585 140.2 585H371.7C387.9 585 401.5 573 403.5 557L405.2 542.5C467.5 519.1 511.9 458.9 511.9 388.4C511.9 373.3 499.6 361 484.5 361H27.4Z" fill="white"/>
<path d="M417 20.1875C417 91.8531 363.629 151.091 294.487 160.238C290.008 126.55 275.183 96.143 253.292 72.3596C277.454 29.2088 323.633 0 376.625 0H396.812C407.979 0 417 9.02129 417 20.1875ZM94 60.5625C94 49.3963 103.021 40.375 114.188 40.375H134.375C212.412 40.375 275.688 103.65 275.688 181.688V201.875V302.812C275.688 313.979 266.666 323 255.5 323C244.334 323 235.312 313.979 235.312 302.812V201.875C157.275 201.875 94 138.6 94 60.5625Z" fill="white"/>
</svg>
