<svg width="1796" height="630" viewBox="0 0 1796 630" fill="none" xmlns="http://www.w3.org/2000/svg">
<path d="M27.4 361C12.3 361 0 373.3 0 388.4C0 458.9 44.4 519.1 106.6 542.6L108.4 557C110.4 573 124.1 585 140.2 585H371.7C387.9 585 401.5 573 403.5 557L405.2 542.5C467.5 519.1 511.9 458.9 511.9 388.4C511.9 373.3 499.6 361 484.5 361H27.4Z" fill="white"/>
<path d="M417 20.1875C417 91.8531 363.629 151.091 294.487 160.238C290.008 126.55 275.183 96.143 253.292 72.3596C277.454 29.2088 323.633 0 376.625 0H396.812C407.979 0 417 9.02129 417 20.1875ZM94 60.5625C94 49.3963 103.021 40.375 114.188 40.375H134.375C212.412 40.375 275.688 103.65 275.688 181.688V201.875V302.812C275.688 313.979 266.666 323 255.5 323C244.334 323 235.312 313.979 235.312 302.812V201.875C157.275 201.875 94 138.6 94 60.5625Z" fill="white"/>
<path d="M691.104 248.56C677.451 248.56 667.125 244.72 660.128 237.04C653.131 229.189 649.632 218.011 649.632 203.504V193.264H676.256V205.552C676.256 217.157 681.12 222.96 690.848 222.96C695.627 222.96 699.211 221.595 701.6 218.864C704.16 215.963 705.44 211.355 705.44 205.04C705.44 197.531 703.733 190.96 700.32 185.328C696.907 179.525 690.592 172.613 681.376 164.592C669.771 154.352 661.664 145.136 657.056 136.944C652.448 128.581 650.144 119.195 650.144 108.784C650.144 94.6187 653.728 83.696 660.896 76.016C668.064 68.1653 678.475 64.24 692.128 64.24C705.611 64.24 715.765 68.1653 722.592 76.016C729.589 83.696 733.088 94.7893 733.088 109.296V116.72H706.464V107.504C706.464 101.36 705.269 96.9227 702.88 94.192C700.491 91.2907 696.992 89.84 692.384 89.84C682.997 89.84 678.304 95.5573 678.304 106.992C678.304 113.477 680.011 119.536 683.424 125.168C687.008 130.8 693.408 137.627 702.624 145.648C714.4 155.888 722.507 165.189 726.944 173.552C731.381 181.915 733.6 191.728 733.6 202.992C733.6 217.669 729.931 228.933 722.592 236.784C715.424 244.635 704.928 248.56 691.104 248.56ZM803.506 248.56C789.853 248.56 779.442 244.72 772.274 237.04C765.106 229.189 761.522 218.011 761.522 203.504V66.8H789.682V205.552C789.682 211.696 790.877 216.133 793.266 218.864C795.826 221.595 799.41 222.96 804.018 222.96C808.626 222.96 812.125 221.595 814.514 218.864C817.074 216.133 818.354 211.696 818.354 205.552V66.8H845.49V203.504C845.49 218.011 841.906 229.189 834.738 237.04C827.57 244.72 817.159 248.56 803.506 248.56ZM914.954 248.56C901.301 248.56 890.975 244.72 883.978 237.04C876.981 229.189 873.482 218.011 873.482 203.504V193.264H900.106V205.552C900.106 217.157 904.97 222.96 914.698 222.96C919.477 222.96 923.061 221.595 925.45 218.864C928.01 215.963 929.29 211.355 929.29 205.04C929.29 197.531 927.583 190.96 924.17 185.328C920.757 179.525 914.442 172.613 905.226 164.592C893.621 154.352 885.514 145.136 880.906 136.944C876.298 128.581 873.994 119.195 873.994 108.784C873.994 94.6187 877.578 83.696 884.746 76.016C891.914 68.1653 902.325 64.24 915.978 64.24C929.461 64.24 939.615 68.1653 946.442 76.016C953.439 83.696 956.938 94.7893 956.938 109.296V116.72H930.314V107.504C930.314 101.36 929.119 96.9227 926.73 94.192C924.341 91.2907 920.842 89.84 916.234 89.84C906.847 89.84 902.154 95.5573 902.154 106.992C902.154 113.477 903.861 119.536 907.274 125.168C910.858 130.8 917.258 137.627 926.474 145.648C938.25 155.888 946.357 165.189 950.794 173.552C955.231 181.915 957.45 191.728 957.45 202.992C957.45 217.669 953.781 228.933 946.442 236.784C939.274 244.635 928.778 248.56 914.954 248.56ZM1008.41 92.4H978.972V66.8H1066.01V92.4H1036.57V246H1008.41V92.4ZM1102.46 66.8H1140.6L1169.78 246H1141.62L1136.5 210.416V210.928H1104.5L1099.38 246H1073.27L1102.46 66.8ZM1133.18 186.608L1120.63 98.032H1120.12L1107.83 186.608H1133.18ZM1196.25 66.8H1224.41V246H1196.25V66.8ZM1258.3 66.8H1293.62L1321.02 174.064H1321.53V66.8H1346.62V246H1317.69L1283.9 115.184H1283.38V246H1258.3V66.8ZM1402.11 66.8H1440.25L1469.43 246H1441.27L1436.15 210.416V210.928H1404.15L1399.03 246H1372.92L1402.11 66.8ZM1432.83 186.608L1420.28 98.032H1419.77L1407.48 186.608H1432.83ZM1495.9 66.8H1538.39C1552.9 66.8 1563.48 70.2133 1570.14 77.04C1576.79 83.696 1580.12 94.0213 1580.12 108.016V115.184C1580.12 124.4 1578.58 131.909 1575.51 137.712C1572.61 143.515 1568.09 147.696 1561.94 150.256V150.768C1575.94 155.547 1582.94 168.005 1582.94 188.144V203.504C1582.94 217.328 1579.27 227.909 1571.93 235.248C1564.76 242.416 1554.18 246 1540.18 246H1495.9V66.8ZM1535.06 139.76C1540.7 139.76 1544.88 138.309 1547.61 135.408C1550.51 132.507 1551.96 127.643 1551.96 120.816V110.832C1551.96 104.347 1550.77 99.6533 1548.38 96.752C1546.16 93.8507 1542.57 92.4 1537.62 92.4H1524.06V139.76H1535.06ZM1540.18 220.4C1545.13 220.4 1548.8 219.12 1551.19 216.56C1553.58 213.829 1554.78 209.221 1554.78 202.736V187.12C1554.78 178.928 1553.33 173.296 1550.42 170.224C1547.69 166.981 1543.09 165.36 1536.6 165.36H1524.06V220.4H1540.18ZM1612.2 66.8H1640.36V220.4H1686.69V246H1612.2V66.8ZM1713 66.8H1789.8V92.4H1741.16V139.76H1779.81V165.36H1741.16V220.4H1789.8V246H1713V66.8ZM694.176 555.56C680.693 555.56 670.368 551.72 663.2 544.04C656.203 536.36 652.704 525.523 652.704 511.528V415.272C652.704 401.277 656.203 390.44 663.2 382.76C670.368 375.08 680.693 371.24 694.176 371.24C707.659 371.24 717.899 375.08 724.896 382.76C732.064 390.44 735.648 401.277 735.648 415.272V434.216H709.024V413.48C709.024 402.387 704.331 396.84 694.944 396.84C685.557 396.84 680.864 402.387 680.864 413.48V513.576C680.864 524.499 685.557 529.96 694.944 529.96C704.331 529.96 709.024 524.499 709.024 513.576V486.184H735.648V511.528C735.648 525.523 732.064 536.36 724.896 544.04C717.899 551.72 707.659 555.56 694.176 555.56ZM787.056 373.8H825.2L854.384 553H826.224L821.104 517.416V517.928H789.104L783.984 553H757.872L787.056 373.8ZM817.776 493.608L805.232 405.032H804.72L792.432 493.608H817.776ZM891.112 399.4H861.672V373.8H948.712V399.4H919.272V553H891.112V399.4ZM975.146 373.8H1051.95V399.4H1003.31V446.76H1041.96V472.36H1003.31V527.4H1051.95V553H975.146V373.8ZM1080.95 373.8H1122.67C1137.18 373.8 1147.76 377.213 1154.42 384.04C1161.07 390.696 1164.4 401.021 1164.4 415.016V426.024C1164.4 444.627 1158.26 456.403 1145.97 461.352V461.864C1152.8 463.912 1157.58 468.093 1160.31 474.408C1163.21 480.723 1164.66 489.171 1164.66 499.752V531.24C1164.66 536.36 1164.83 540.541 1165.17 543.784C1165.51 546.856 1166.36 549.928 1167.73 553H1139.06C1138.03 550.099 1137.35 547.368 1137.01 544.808C1136.67 542.248 1136.5 537.64 1136.5 530.984V498.216C1136.5 490.024 1135.13 484.307 1132.4 481.064C1129.84 477.821 1125.32 476.2 1118.83 476.2H1109.11V553H1080.95V373.8ZM1119.35 450.6C1124.98 450.6 1129.16 449.149 1131.89 446.248C1134.79 443.347 1136.24 438.483 1136.24 431.656V417.832C1136.24 411.347 1135.05 406.653 1132.66 403.752C1130.44 400.851 1126.86 399.4 1121.91 399.4H1109.11V450.6H1119.35ZM1197 373.8H1225.16V553H1197V373.8ZM1259.05 373.8H1294.37L1321.77 481.064H1322.28V373.8H1347.37V553H1318.44L1284.65 422.184H1284.13V553H1259.05V373.8ZM1421.03 555.56C1407.38 555.56 1396.97 551.72 1389.8 544.04C1382.63 536.189 1379.05 525.011 1379.05 510.504V416.296C1379.05 401.789 1382.63 390.696 1389.8 383.016C1396.97 375.165 1407.38 371.24 1421.03 371.24C1434.69 371.24 1445.1 375.165 1452.26 383.016C1459.43 390.696 1463.02 401.789 1463.02 416.296V431.656H1436.39V414.504C1436.39 402.728 1431.53 396.84 1421.8 396.84C1412.07 396.84 1407.21 402.728 1407.21 414.504V512.552C1407.21 524.157 1412.07 529.96 1421.8 529.96C1431.53 529.96 1436.39 524.157 1436.39 512.552V477.48H1422.31V451.88H1463.02V510.504C1463.02 525.011 1459.43 536.189 1452.26 544.04C1445.1 551.72 1434.69 555.56 1421.03 555.56Z" fill="white"/>
</svg>
