<svg xmlns="http://www.w3.org/2000/svg" viewBox="0 0 1440 320"><path fill="#ffffff" fill-opacity="1" d="M0,128L30,128C60,128,120,128,180,117.3C240,107,300,85,360,90.7C420,96,480,128,540,122.7C600,117,660,75,720,58.7C780,43,840,53,900,69.3C960,85,1020,107,1080,133.3C1140,160,1200,192,1260,197.3C1320,203,1380,181,1410,170.7L1440,160L1440,320L1410,320C1380,320,1320,320,1260,320C1200,320,1140,320,1080,320C1020,320,960,320,900,320C840,320,780,320,720,320C660,320,600,320,540,320C480,320,420,320,360,320C300,320,240,320,180,320C120,320,60,320,30,320L0,320Z"></path></svg>