<svg xmlns="http://www.w3.org/2000/svg" viewBox="0 0 1440 320"><path fill="#0369a1" fill-opacity="1" d="M0,160L30,149.3C60,139,120,117,180,128C240,139,300,181,360,181.3C420,181,480,139,540,117.3C600,96,660,96,720,117.3C780,139,840,181,900,202.7C960,224,1020,224,1080,224C1140,224,1200,224,1260,208C1320,192,1380,160,1410,144L1440,128L1440,320L1410,320C1380,320,1320,320,1260,320C1200,320,1140,320,1080,320C1020,320,960,320,900,320C840,320,780,320,720,320C660,320,600,320,540,320C480,320,420,320,360,320C300,320,240,320,180,320C120,320,60,320,30,320L0,320Z"></path></svg>